<?xml version="1.0" encoding="iso-8859-1"?>
<!-- Generator: Adobe Illustrator 30.4.0, SVG Export Plug-In . SVG Version: 9.03 Build 0)  -->
<svg version="1.1" id="&#x30EC;&#x30A4;&#x30E4;&#x30FC;_1"
	 xmlns="http://www.w3.org/2000/svg" xmlns:xlink="http://www.w3.org/1999/xlink" x="0px" y="0px" viewBox="0 0 1058.451 687.324"
	 style="enable-background:new 0 0 1058.451 687.324;" xml:space="preserve">
<g>
	<rect x="54.93" y="56.338" style="fill:#1D262A;" width="1003.521" height="630.986"/>
	<g>
		<rect style="fill:#F56500;" width="684.507" height="523.239"/>
	</g>
	<g>
		<path d="M479.581,108.264h-25.979v32.549h-10.5v-32.549h-25.979v-9.449h62.458V108.264z"/>
		<path d="M517.202,98.815v16.079h38.579V98.815h10.499v41.998h-10.499v-16.5h-38.579v16.5h-10.5V98.815H517.202z"/>
		<path d="M599.041,98.815h51.538v9.449h-51.538V98.815z M599.041,131.363h52.318v9.45h-52.318V131.363z M618.691,115.104v9.419
			h-19.259v-9.419H618.691z"/>
		<path style="fill:#FFFFFF;" d="M777.688,98.815v9.449H732.33v6.84h15.54v9.419h-15.54v16.29h-10.049V98.815H777.688z"/>
		<path style="fill:#FFFFFF;" d="M831.359,108.324l-23.97,32.489H796.26v-1.38l29.729-40.618h10.949l29.759,40.618v1.38h-11.219
			L831.359,108.324z"/>
		<path style="fill:#FFFFFF;" d="M903.179,98.815v32.548h43.438v9.45H892.62V98.815H903.179z"/>
		<path style="fill:#FFFFFF;" d="M984.658,98.815v32.548h43.438v9.45h-53.998V98.815H984.658z"/>
	</g>
	<g>
		<g>
			<path style="fill:#FFFFFF;" d="M818.585,614.819v26.041h34.754v7.561h-43.202v-33.601H818.585z"/>
			<path style="fill:#FFFFFF;" d="M878.926,614.819v33.601h-8.401v-33.601H878.926z"/>
			<path style="fill:#FFFFFF;" d="M908.737,626.243v22.177h-8.401v-34.082h4.2l34.201,22.322v-21.841h8.401V648.9h-4.2
				L908.737,626.243z"/>
			<path style="fill:#FFFFFF;" d="M968.55,614.819h41.234v7.56H968.55V614.819z M968.55,640.859h41.858v7.561H968.55V640.859z
				 M984.271,627.851v7.536h-15.408v-7.536H984.271z"/>
		</g>
		<g>
			<path style="fill:#FFFFFF;" d="M111.421,614.819v26.041h34.754v7.56h-43.202v-33.601H111.421z"/>
			<path style="fill:#FFFFFF;" d="M185.97,622.427l-19.177,25.993h-8.904v-1.104l23.785-32.497h8.76l23.809,32.497v1.104h-8.977
				L185.97,622.427z"/>
			<path style="fill:#FFFFFF;" d="M238.583,626.243v22.177h-8.401v-34.081h4.2l34.201,22.321v-21.841h8.401V648.9h-4.2
				L238.583,626.243z"/>
			<path style="fill:#FFFFFF;" d="M341.359,624.035v15.169c0,5.976-3.24,9.216-9.192,9.216h-34.922v-7.56h32.977
				c2.377,0,2.736-0.36,2.736-2.736v-13.009c0-2.376-0.359-2.736-2.736-2.736h-32.977v-7.56h34.922
				C338.119,614.819,341.359,618.059,341.359,624.035z"/>
			<path style="fill:#FFFFFF;" d="M370.858,614.819v33.601h-8.401v-33.601H370.858z"/>
			<path style="fill:#FFFFFF;" d="M400.669,626.243v22.177h-8.401v-34.081h4.2l34.201,22.321v-21.841h8.401V648.9h-4.2
				L400.669,626.243z"/>
			<path style="fill:#FFFFFF;" d="M504.789,622.379h-33.481c-2.377,0-2.736,0.36-2.736,2.736v13.009
				c0,2.376,0.359,2.736,2.736,2.736h25.081v-5.64h-13.897v-7.537h22.297v20.737h-35.402c-5.976,0-9.216-3.24-9.216-9.216v-15.169
				c0-5.976,3.24-9.216,9.216-9.216h35.402V622.379z"/>
		</g>
	</g>
</g>
</svg>
